<svg version="1.1" xmlns="http://www.w3.org/2000/svg" xmlns:xlink="http://www.w3.org/1999/xlink" width="24" height="24" viewBox="0,0,256,256"><g fill="#d4d4d4" fill-rule="nonzero" stroke="none" stroke-width="1" stroke-linecap="butt" stroke-linejoin="miter" stroke-miterlimit="10" stroke-dasharray="" stroke-dashoffset="0" font-family="none" font-weight="none" font-size="none" text-anchor="none" style="mix-blend-mode: normal"><g transform="scale(10.66667,10.66667)"><path d="M2,9.352c0,1.873 0.849,2.943 1.683,3.943c0.031,1 0.085,1.668 -0.333,3.183c1.748,-0.558 2.038,-0.778 3.008,-1.374c1,0.244 1.474,0.381 2.611,0.491c-0.094,0.708 -0.081,1.275 0.055,2.023c-0.752,-0.06 -1.528,-0.178 -2.33,-0.374c-1.397,0.857 -4.481,1.725 -6.649,2.115c0.811,-1.595 1.708,-3.785 1.661,-5.312c-1.091,-1.305 -1.706,-2.985 -1.706,-4.695c0,-4.826 4.719,-8.352 10,-8.352c5.237,0 9.977,3.484 9.998,8.318c-0.644,-0.175 -1.322,-0.277 -2.021,-0.314c-0.229,-3.34 -3.713,-6.004 -7.977,-6.004c-4.411,0 -8,2.85 -8,6.352zM22.883,19.521c-0.029,1.001 0.558,2.435 1.088,3.479c-1.419,-0.258 -3.438,-0.824 -4.352,-1.385c-0.772,0.188 -1.514,0.274 -2.213,0.274c-3.865,0 -6.498,-2.643 -6.498,-5.442c0,-3.174 3.11,-5.467 6.546,-5.467c3.457,0 6.546,2.309 6.546,5.467c0,1.12 -0.403,2.221 -1.117,3.074zM17.219,15h-2.219v2.222h0.889c0,0.491 -0.347,1.096 -0.887,1.3l0.221,0.478c1.167,-0.231 1.996,-1.09 1.996,-2.358zM20.334,15h-2.219v2.222h0.885c0,0.491 -0.348,1.096 -0.888,1.3l0.222,0.478c1.167,-0.231 2,-1.09 2,-2.358zM12.773,11v-2.777h-1.111c0,-0.615 0.434,-1.371 1.108,-1.625l-0.275,-0.598c-1.459,0.289 -2.495,1.363 -2.495,2.948v2.052zM8.773,11v-2.777h-1.105c0,-0.615 0.435,-1.371 1.109,-1.625l-0.277,-0.598c-1.458,0.289 -2.5,1.363 -2.5,2.948v2.052z"></path></g></g></svg>